<?xml version="1.0" encoding="UTF-8" standalone="no"?><!-- Generator: Gravit.io --><svg xmlns="http://www.w3.org/2000/svg" xmlns:xlink="http://www.w3.org/1999/xlink" style="isolation:isolate" viewBox="0 0 425 360" width="425pt" height="360pt"><defs><clipPath id="_clipPath_Ff6azMU11mT3rgWKOAnVRafTiWr46Dqy"><rect width="425" height="360"/></clipPath></defs><g clip-path="url(#_clipPath_Ff6azMU11mT3rgWKOAnVRafTiWr46Dqy)"><rect width="425" height="360" style="fill:rgb(97,135,110)" fill-opacity="0"/><g><g><path d=" M 212.5 11.473 C 186.713 26.86 168.889 54.207 166.686 85.858 C 185.324 101.833 200.164 122.118 209.658 145.165 C 210.558 142.983 211.504 140.826 212.5 138.694 C 213.494 140.826 214.442 142.983 215.342 145.165 C 224.836 122.118 239.675 101.835 258.314 85.858 C 256.111 54.207 238.289 26.86 212.5 11.473" fill-rule="evenodd" fill="rgb(97,135,110)"/><path d=" M 260.753 40.768 C 239.63 57.337 222.876 79.222 212.5 104.407 C 220.066 122.771 224.237 142.889 224.237 163.981 C 224.237 175.883 222.908 187.475 220.392 198.618 C 260.063 194.626 291.299 160.892 291.299 120.215 L 291.299 22.014 C 280.375 27.101 270.133 33.41 260.753 40.768 Z " fill-rule="evenodd" fill="rgb(166,187,141)"/><path d=" M 283.096 58.308 C 282.407 58.732 281.722 59.162 281.041 59.597 C 280.314 60.062 279.586 60.534 278.865 61.011 C 276.426 62.631 274.032 64.322 271.69 66.086 C 269.24 67.929 266.845 69.849 264.51 71.843 C 260.845 74.971 257.324 78.283 253.964 81.766 C 245.885 90.142 238.778 99.453 232.85 109.544 C 230.002 114.394 227.411 119.45 225.103 124.696 C 223.524 128.284 222.075 131.963 220.768 135.723 C 219.844 138.379 218.992 141.074 218.213 143.808 C 216.367 150.3 214.938 157.009 213.964 163.905 C 213.918 164.227 213.874 164.547 213.831 164.867 C 213.114 170.165 212.688 175.359 212.537 180.433 C 212.433 183.93 212.448 187.388 212.584 190.801 L 212.614 190.805 L 212.498 190.805 L 211.36 190.801 C 210.75 187.44 210.25 184.019 209.862 180.541 C 209.268 175.191 208.963 169.664 208.963 163.977 C 208.963 154.077 209.925 144.427 211.759 135.119 C 213.653 125.5 216.454 116.263 220.059 107.508 C 224.516 96.688 230.252 86.472 237.08 77.048 C 243.97 67.54 251.936 58.897 260.787 51.308 C 265.896 46.929 271.324 42.881 277.032 39.204 C 279.015 37.926 281.036 36.691 283.096 35.502 L 283.096 58.307 L 283.096 58.308 Z " fill-rule="evenodd" fill="rgb(234,231,177)"/><path d=" M 212.5 104.406 C 203.006 81.358 188.167 61.075 169.528 45.098 C 158.756 35.865 146.714 28.071 133.699 22.011 L 133.699 120.214 C 133.699 160.891 164.937 194.626 204.608 198.616 C 207.205 198.878 209.836 199.011 212.5 199.011 C 215.164 199.011 217.795 198.877 220.392 198.616 C 222.909 187.474 224.237 175.883 224.237 163.98 C 224.237 142.887 220.064 122.769 212.5 104.406" fill-rule="evenodd" fill="rgb(166,187,141)"/><path d=" M 287.838 15.242 C 282.203 17.864 276.66 20.853 271.24 24.181 C 265.796 27.523 260.602 31.135 255.691 34.988 C 254.132 36.211 252.598 37.467 251.082 38.746 C 242.449 24.994 230.645 13.44 216.697 5.116 L 212.502 2.611 L 208.304 5.115 C 194.353 13.44 182.547 24.997 173.915 38.751 C 168.49 34.169 162.775 29.938 156.809 26.093 C 150.485 22.017 143.919 18.386 137.161 15.239 L 125.5 9.811 L 125.5 120.872 C 125.5 143.189 134.046 163.634 148.033 179.1 C 162.14 194.696 181.796 205.198 203.808 207.412 C 205.252 207.558 206.702 207.668 208.15 207.74 C 209.887 207.828 211.335 207.871 212.502 207.871 C 213.668 207.871 215.115 207.827 216.85 207.74 C 218.3 207.668 219.75 207.557 221.194 207.412 L 227.073 206.814 L 227.12 206.606 C 246.725 203.25 264.143 193.28 276.968 179.099 C 290.954 163.632 299.5 143.188 299.5 120.871 L 299.5 9.814 L 287.839 15.24 L 287.838 15.242 Z  M 187.356 48.076 C 193.78 37.646 202.37 28.686 212.502 21.819 C 222.632 28.685 231.222 37.646 237.645 48.076 C 238.069 48.765 238.484 49.46 238.889 50.163 C 234.306 54.911 229.991 59.941 225.98 65.232 C 220.983 71.82 216.476 78.788 212.506 86.082 C 209.108 79.822 205.323 73.816 201.184 68.103 C 196.596 61.772 191.557 55.777 186.117 50.157 C 186.521 49.457 186.934 48.764 187.358 48.076 L 187.356 48.076 Z  M 205.41 191.138 C 187.556 189.343 171.6 180.812 160.142 168.144 C 148.82 155.626 141.902 139.03 141.902 120.872 L 141.902 36.167 C 143.964 37.357 145.984 38.591 147.968 39.867 C 153.676 43.545 159.102 47.593 164.212 51.972 C 164.87 52.536 165.521 53.107 166.169 53.682 C 170.649 57.66 174.889 61.914 178.867 66.415 C 182.058 70.025 185.082 73.793 187.92 77.71 C 194.748 87.134 200.484 97.349 204.941 108.17 C 207.083 113.369 208.937 118.741 210.49 124.26 C 211.552 128.034 212.473 131.874 213.243 135.781 C 215.077 145.089 216.039 154.739 216.039 164.638 C 216.039 164.966 216.034 165.291 216.033 165.617 C 215.999 170.96 215.699 176.161 215.139 181.204 C 215.069 181.831 214.994 182.454 214.918 183.078 C 214.903 183.202 214.888 183.325 214.872 183.447 C 214.795 184.06 214.714 184.673 214.63 185.283 C 214.619 185.362 214.607 185.44 214.596 185.519 C 214.514 186.108 214.429 186.695 214.339 187.28 C 214.33 187.346 214.319 187.41 214.31 187.475 C 214.215 188.09 214.118 188.701 214.016 189.311 C 213.997 189.422 213.977 189.534 213.959 189.645 C 213.857 190.253 213.752 190.86 213.642 191.464 L 212.505 191.47 C 211.009 191.47 209.812 191.446 208.923 191.403 C 207.74 191.345 206.569 191.255 205.413 191.138 L 205.41 191.138 Z  M 283.096 120.872 C 283.096 139.028 276.177 155.625 264.856 168.144 C 255.816 178.14 243.976 185.557 230.612 189.125 C 230.69 188.602 230.766 188.078 230.839 187.553 C 230.839 187.542 230.842 187.532 230.844 187.521 C 230.935 186.865 231.022 186.208 231.104 185.551 C 231.127 185.37 231.15 185.188 231.173 185.007 C 231.255 184.337 231.336 183.668 231.411 182.999 C 232.089 176.885 232.438 170.756 232.438 164.638 C 232.438 154.423 231.501 144.403 229.708 134.662 C 229.584 133.988 229.456 133.314 229.323 132.641 C 229.2 132.013 229.072 131.387 228.941 130.761 C 228.898 130.556 228.852 130.351 228.808 130.145 C 228.718 129.725 228.628 129.305 228.535 128.886 C 228.482 128.644 228.425 128.401 228.37 128.159 C 228.284 127.776 228.197 127.395 228.108 127.014 C 228.049 126.759 227.988 126.506 227.927 126.251 C 227.838 125.881 227.748 125.509 227.657 125.14 C 227.594 124.885 227.53 124.631 227.466 124.376 C 227.373 124.004 227.277 123.633 227.181 123.263 C 227.117 123.014 227.052 122.766 226.986 122.517 C 226.885 122.135 226.782 121.752 226.678 121.371 C 226.614 121.138 226.552 120.904 226.487 120.671 C 226.373 120.256 226.254 119.842 226.137 119.428 C 226.08 119.23 226.026 119.032 225.968 118.834 C 225.811 118.289 225.649 117.748 225.486 117.205 C 225.466 117.138 225.446 117.073 225.426 117.006 C 225.24 116.391 225.051 115.78 224.858 115.168 C 224.809 115.014 224.759 114.86 224.71 114.706 C 224.566 114.257 224.422 113.807 224.275 113.357 C 224.204 113.141 224.13 112.924 224.059 112.708 C 224.048 112.674 224.036 112.64 224.025 112.607 C 223.908 112.255 223.79 111.904 223.67 111.552 C 223.589 111.312 223.505 111.075 223.423 110.835 C 223.298 110.474 223.173 110.114 223.045 109.754 C 222.956 109.504 222.868 109.256 222.778 109.006 C 222.653 108.658 222.526 108.31 222.4 107.963 C 222.307 107.708 222.212 107.453 222.118 107.2 C 221.991 106.859 221.862 106.517 221.732 106.177 C 221.634 105.921 221.538 105.667 221.439 105.41 C 221.407 105.325 221.375 105.24 221.342 105.156 C 226.056 94.393 231.998 84.312 238.985 75.095 C 241.251 72.107 243.636 69.207 246.127 66.395 C 250.093 61.92 254.336 57.677 258.834 53.688 C 261.098 51.68 263.425 49.736 265.814 47.861 C 270.315 44.331 274.973 41.082 279.76 38.143 C 280.858 37.469 281.971 36.807 283.096 36.157 L 283.096 120.872 L 283.096 120.872 Z " fill="rgb(60,98,85)"/><path d=" M 141.902 58.313 C 142.591 58.737 143.276 59.167 143.956 59.601 C 144.685 60.066 145.411 60.539 146.132 61.016 C 148.571 62.635 150.964 64.328 153.307 66.09 C 155.757 67.934 158.151 69.853 160.487 71.847 C 164.154 74.976 167.673 78.288 171.033 81.77 C 179.112 90.147 186.219 99.458 192.147 109.548 C 194.995 114.398 197.585 119.454 199.894 124.701 C 201.473 128.288 202.92 131.967 204.229 135.726 C 205.151 138.382 206.005 141.077 206.784 143.811 C 208.63 150.303 210.06 157.01 211.033 163.908 C 211.079 164.23 211.123 164.55 211.167 164.87 C 211.883 170.167 212.309 175.36 212.462 180.436 C 212.566 183.933 212.55 187.391 212.415 190.805 L 212.384 190.81 L 212.5 190.81 L 213.639 190.805 C 214.249 187.445 214.749 184.023 215.135 180.546 C 215.729 175.195 216.036 169.667 216.036 163.981 C 216.036 154.082 215.074 144.432 213.239 135.124 C 211.346 125.504 208.545 116.269 204.939 107.513 C 200.481 96.692 194.747 86.477 187.919 77.053 C 181.027 67.545 173.062 58.901 164.21 51.313 C 159.101 46.934 153.673 42.886 147.966 39.208 C 145.984 37.931 143.962 36.696 141.902 35.506 L 141.902 58.311 L 141.902 58.313 Z " fill-rule="evenodd" fill="rgb(234,231,177)"/><path d=" M 189.956 53.595 C 195.809 44.426 203.497 36.533 212.5 30.431 C 221.508 36.534 229.198 44.433 235.052 53.608 C 236.308 52.215 237.586 50.845 238.886 49.498 C 238.482 48.797 238.069 48.105 237.644 47.417 C 231.22 36.987 222.629 28.026 212.498 21.161 C 202.368 28.026 193.778 36.987 187.353 47.417 C 186.931 48.103 186.518 48.794 186.114 49.492 C 187.417 50.839 188.697 52.206 189.953 53.595" fill-rule="evenodd" fill="rgb(234,231,177)"/></g><g clip-path="url(#_clipPath_UIpXHjwcAp1lGuSUxWl3pEWLaGdWZ2hd)"><text transform="matrix(0.608,0,0,0.608,20.141,297.051)" style="font-family:'Pattaya';font-weight:400;font-size:205px;font-style:normal;letter-spacing:-5;fill:#3c6255;stroke:none;">Bellevue</text></g><defs><clipPath id="_clipPath_UIpXHjwcAp1lGuSUxWl3pEWLaGdWZ2hd"><rect x="0" y="0" width="900" height="253" transform="matrix(0.608,0,0,0.608,-61.277,180.871)"/></clipPath></defs><path d="M 122.624 310.6 L 302.376 310.6 C 314.89 310.6 325.05 320.76 325.05 333.275 L 325.05 333.275 C 325.05 345.79 314.89 355.95 302.376 355.95 L 122.624 355.95 C 110.11 355.95 99.95 345.79 99.95 333.275 L 99.95 333.275 C 99.95 320.76 110.11 310.6 122.624 310.6 Z" style="stroke:none;fill:#A6BB8D;stroke-miterlimit:10;"/><g clip-path="url(#_clipPath_ZZbPHTs2UBPeVnXojIrOMbIw9CboyMua)"><text transform="matrix(0.608,0,0,0.608,137.39,339.552)" style="font-family:'Pattaya';font-weight:400;font-size:36px;font-style:normal;letter-spacing:-1;fill:#eaf9ff;stroke:none;">Friendship Garden</text></g><defs><clipPath id="_clipPath_ZZbPHTs2UBPeVnXojIrOMbIw9CboyMua"><rect x="0" y="0" width="362" height="101" transform="matrix(0.608,0,0,0.608,102.381,301.941)"/></clipPath></defs></g></g></svg>